# xmcd
#
# Track frame offsets:
#	182
#	21970
#	41480
#	53917
#	67817
#	75495
#	90942
#	100757
#	108347
#	126712
#	145857
#	164575
#	179760
#	196117
#	208715
#	231740
#
# Disc length: 3168 seconds
#
# Revision: 4
# Processed by: cddbd v1.4PL0 Copyright (c) Steve Scherf et al.
# Submitted via: audiograbber 1.80
#
DISCID=e00c5e10
DTITLE=Blur - Parklife
DYEAR=1900
DGENRE=
TTITLE0=Girls and Boys
TTITLE1=Tracy Jacks
TTITLE2=End Of A Century
TTITLE3=Parklife
TTITLE4=Bank Holiday
TTITLE5=Badhead
TTITLE6=The Debt Collector
TTITLE7=Far Out
TTITLE8=To The End
TTITLE9=London Loves
TTITLE10=Trouble In The Message Center
TTITLE11=Clover Over Dover
TTITLE12=Magic America
TTITLE13=Jubilee
TTITLE14=This Is A Low
TTITLE15=Lot 105
EXTD=
EXTT0=a\n
EXTT1=b\n
EXTT2=c\n
EXTT3=d\n
EXTT4=e\n
EXTT5=f\n
EXTT6=
EXTT7=
EXTT8=
EXTT9=
EXTT10=
EXTT11=
EXTT12=
EXTT13=
EXTT14=
EXTT15=
PLAYORDER=
